<?xml version="1.0" encoding="utf-8"?>
<!-- Generator: Adobe Illustrator 16.0.3, SVG Export Plug-In . SVG Version: 6.00 Build 0)  -->
<!DOCTYPE svg PUBLIC "-//W3C//DTD SVG 1.1//EN" "http://www.w3.org/Graphics/SVG/1.1/DTD/svg11.dtd" [
	<!ENTITY ns_flows "http://ns.adobe.com/Flows/1.0/">
	<!ENTITY ns_extend "http://ns.adobe.com/Extensibility/1.0/">
	<!ENTITY ns_ai "http://ns.adobe.com/AdobeIllustrator/10.0/">
	<!ENTITY ns_graphs "http://ns.adobe.com/Graphs/1.0/">
]>
<svg version="1.1" id="Layer_1" xmlns:x="&ns_extend;" xmlns:i="&ns_ai;" xmlns:graph="&ns_graphs;"
	 xmlns="http://www.w3.org/2000/svg" xmlns:xlink="http://www.w3.org/1999/xlink" xmlns:a="http://ns.adobe.com/AdobeSVGViewerExtensions/3.0/"
	 x="0px" y="0px" width="1695.949px" height="987.098px" viewBox="0 0 1695.949 987.098"
	 enable-background="new 0 0 1695.949 987.098" xml:space="preserve">
<path fill="#FFFFFF" d="M904.739,311.979c1.332,0,2.414,1.082,2.414,2.412v96.553c0,1.33-1.082,2.414-2.414,2.414h-96.553
	c-1.33,0-2.412-1.084-2.412-2.414v-96.553c0-1.33,1.08-2.412,2.412-2.412H904.739 M904.739,302.323h-96.553
	c-6.666,0-12.066,5.404-12.066,12.068v96.553c0,6.666,5.4,12.068,12.066,12.068h96.553c6.666,0,12.068-5.402,12.068-12.068v-96.553
	C916.809,307.727,911.405,302.323,904.739,302.323L904.739,302.323z"/>
<path fill="#FFFFFF" d="M1164.223,34.391c11.313,0,20.518,9.204,20.518,20.517v518.967c0,11.313-9.203,20.518-20.518,20.518H1013.36
	h-6.033h-18.104c-1.332,0-2.414-1.082-2.414-2.414v-18.104v-6.035v-38.369v-15.939v-18.105c0-1.33,1.082-2.412,2.414-2.412h18.104
	h15.939h44.404c21.961,0,39.828-17.867,39.828-39.828s-17.867-39.828-39.828-39.828h-44.404h-15.939h-18.104
	c-1.332,0-2.414-1.082-2.414-2.414V392.84v-60.346v-18.104c0-1.33,1.082-2.412,2.414-2.412h18.104h15.939h44.404
	c21.961,0,39.828-17.867,39.828-39.828c0-21.961-17.867-39.828-39.828-39.828h-44.404h-15.939h-18.104
	c-1.332,0-2.414-1.083-2.414-2.414v-18.103v-15.94v-44.404c0-21.961-17.867-39.827-39.828-39.827s-39.828,17.866-39.828,39.827
	v44.404v15.94v18.103c0,1.331-1.082,2.414-2.412,2.414h-18.105h-15.939h-28.465h-15.938h-18.105c-1.33,0-2.412-1.083-2.412-2.414
	v-18.103v-15.94v-44.404c0-21.961-17.867-39.827-39.828-39.827s-39.828,17.866-39.828,39.827v44.404v15.94v18.103
	c0,1.331-1.082,2.414-2.412,2.414h-18.104h-15.94h-1.313h-12.918h-48.278c-1.331,0-2.414-1.083-2.414-2.414v-48.274v-12.921V54.908
	c0-11.313,9.203-20.517,20.518-20.517H1164.223 M1164.223,24.736H645.256c-16.663,0-30.172,13.509-30.172,30.172v113.805v12.922
	v48.273c0,6.666,5.403,12.069,12.069,12.069h48.274h12.918h1.313h15.939h18.104c6.666,0,12.068-5.403,12.068-12.069v-18.103v-15.94
	v-44.404c0-16.665,13.51-30.173,30.174-30.173c16.662,0,30.172,13.508,30.172,30.173v44.404v15.94v18.103
	c0,6.666,5.4,12.069,12.066,12.069h18.105h15.938h28.467h15.938h18.105c6.666,0,12.068-5.403,12.068-12.069v-18.103v-15.94v-44.404
	c0-16.665,13.508-30.173,30.172-30.173c16.662,0,30.172,13.508,30.172,30.173v44.404v15.94v18.103
	c0,6.666,5.404,12.069,12.07,12.069h18.104h15.939h44.404c16.664,0,30.172,13.508,30.172,30.171
	c0,16.664-13.508,30.174-30.172,30.174h-44.404h-15.939h-18.104c-6.666,0-12.07,5.404-12.07,12.068v18.104v60.346v18.104
	c0,6.666,5.404,12.07,12.07,12.07h18.104h15.939h44.404c16.664,0,30.172,13.506,30.172,30.172c0,16.662-13.508,30.172-30.172,30.172
	h-44.404h-15.939h-18.104c-6.666,0-12.07,5.404-12.07,12.068v18.104v15.941v38.367v6.035v18.105c0,6.666,5.404,12.066,12.07,12.066
	h18.104h6.033h150.863c16.662,0,30.172-13.508,30.172-30.172V54.908C1194.395,38.245,1180.885,24.736,1164.223,24.736
	L1164.223,24.736z"/>
<path fill="#FFFFFF" d="M723.706,311.979c1.33,0,2.412,1.082,2.412,2.412v18.104v60.346v18.104c0,1.332-1.082,2.414-2.412,2.414
	H705.6h-18.103h-42.242c-21.961,0-39.827,17.867-39.827,39.828s17.866,39.828,39.827,39.828h42.242H705.6h18.105
	c1.33,0,2.412,1.082,2.412,2.412v18.104v18.105v42.24c0,21.961,17.867,39.826,39.828,39.826s39.828-17.865,39.828-39.826v-42.24
	V513.53v-18.104c0-1.33,1.082-2.412,2.412-2.412h24.139h12.068h24.141h18.102h18.105c1.332,0,2.414,1.082,2.414,2.412v18.104v18.105
	v162.932c0,11.313-9.203,20.516-20.52,20.516H524.567c-11.313,0-20.52-9.201-20.52-20.516v-362.07
	c0-11.313,9.204-20.518,20.52-20.518h162.931h18.104H723.706 M723.706,302.323H705.6h-18.103h-162.93
	c-16.664,0-30.175,13.508-30.175,30.172v362.07c0,16.662,13.511,30.172,30.175,30.172h362.066c16.664,0,30.174-13.51,30.174-30.172
	V531.633v-18.105v-18.104c0-6.664-5.4-12.066-12.068-12.066h-18.105h-18.102h-24.139h-12.068h-24.139
	c-6.666,0-12.068,5.402-12.068,12.066v18.104v18.105v42.24c0,16.662-13.51,30.172-30.172,30.172
	c-16.664,0-30.174-13.51-30.174-30.172v-42.24v-18.105v-18.104c0-6.664-5.402-12.066-12.068-12.066H705.6h-18.104h-42.242
	c-16.663,0-30.172-13.51-30.172-30.174s13.509-30.172,30.172-30.172h42.242H705.6h18.104c6.666,0,12.068-5.402,12.068-12.068V392.84
	v-60.346v-18.104C735.772,307.727,730.37,302.323,723.706,302.323L723.706,302.323z"/>
<path fill="#FFFFFF" d="M18,837.139c0-7,5.4-12.4,12.4-12.4h39.799c44,0,74.399,30.199,74.399,69.6v0.398
	c0,39.4-30.399,70-74.399,70H30.4c-7,0-12.4-5.4-12.4-12.4V837.139z M70.199,942.336c29.4,0,48.6-19.799,48.6-47.197v-0.4
	c0-27.4-19.2-47.6-48.6-47.6h-27.6v95.197H70.199z"/>
<path fill="#FFFFFF" d="M174.399,952.336V837.139c0-7,5.4-12.4,12.4-12.4h81.399c6,0,11,5,11,11c0,6.201-5,11-11,11h-69.199v36.4
	h60.199c6,0,11,5,11,11.199c0,5.998-5,10.801-11,10.801h-60.199v37.598h70.199c6,0,11,5,11,11c0,6.199-5,11-11,11h-82.399
	C179.799,964.737,174.399,959.336,174.399,952.336z"/>
<path fill="#FFFFFF" d="M348.999,956.737l-49-115.199c-0.8-1.799-1.4-3.6-1.4-5.799c0-6.6,5.4-12,12.4-12c6.4,0,10.6,3.6,12.6,8.799
	l40.399,101l41-101.799c1.6-4.201,6-8,11.8-8c6.8,0,12.2,5.199,12.2,11.799c0,1.801-0.601,3.801-1.2,5.201l-49.2,115.998
	c-2.6,6.199-7.2,10-14.2,10h-1.399C356.198,966.737,351.599,962.936,348.999,956.737z"/>
<path fill="#FFFFFF" d="M451.796,947.936c-1.8-1.199-3-3.398-3-6c0-4.398,3.4-7.799,7.6-7.799c2,0,3.801,0.799,4.801,1.799
	c13.199,11.201,26.398,16.6,44.198,16.6c18.801,0,31.2-9.998,31.2-23.799v-0.4c0-13-7-20.398-36.398-26.6
	c-32.2-7-47-17.398-47-40.398v-0.4c0-21.998,19.399-38.199,46-38.199c18.398,0,31.799,4.602,44.599,13.801
	c1.6,1.199,3.4,3.4,3.4,6.4c0,4.199-3.4,7.6-7.601,7.6c-1.8,0-3.2-0.4-4.6-1.4c-11.8-8.6-23.2-12.199-36.2-12.199
	c-18.2,0-29.799,10-29.799,22.6v0.4c0,13.199,7.2,20.6,38,27.199c31.199,6.801,45.599,18.199,45.599,39.6v0.4
	c0,24-20,39.6-47.799,39.6C484.396,966.737,467.396,960.336,451.796,947.936z"/>
<path fill="#FFFFFF" d="M584.796,831.739c0-4.4,3.6-8,7.8-8c4.4,0,8,3.6,8,8v55.199h80.8v-55.199c0-4.4,3.6-8,8-8
	c4.199,0,7.8,3.6,7.8,8v125.998c0,4.4-3.601,8-7.8,8c-4.4,0-8-3.6-8-8v-56h-80.8v56c0,4.4-3.6,8-8,8c-4.2,0-7.8-3.6-7.8-8V831.739z"
	/>
<path fill="#FFFFFF" d="M728.196,954.336l56.799-124.197c2-4.4,5-7,10-7h0.799c4.801,0,8,2.6,9.801,7l56.799,123.998
	c0.602,1.398,1,2.801,1,4c0,4.199-3.398,7.6-7.6,7.6c-3.801,0-6.4-2.6-7.801-5.799l-14.6-32.199h-76.799l-14.6,32.598
	c-1.4,3.4-4,5.4-7.602,5.4c-4,0-7.199-3.199-7.199-7.199C727.196,957.336,727.395,955.936,728.196,954.336z M827.192,913.336
	l-32.197-71.598l-32.201,71.598H827.192z"/>
<path fill="#FFFFFF" d="M893.594,832.739c0-4.4,3.6-8,7.799-8h52.4c17.199,0,30.998,5.199,39.799,14
	c6.799,6.799,10.799,16.6,10.799,27.6v0.4c0,22.998-15.6,36.398-37.396,40.598l34.799,44.801c1.6,1.801,2.6,3.6,2.6,5.801
	c0,4.199-4,7.799-8,7.799c-3.199,0-5.6-1.799-7.398-4.199l-39.4-51.199h-40.199v47.398c0,4.4-3.6,8-8,8c-4.199,0-7.799-3.6-7.799-8
	V832.739H893.594z M952.393,896.137c21,0,35.998-10.801,35.998-28.801v-0.398c0-17.199-13.197-27.602-35.799-27.602h-43.199v56.801
	H952.393z"/>
<path fill="#FFFFFF" d="M1038.192,832.739c0-4.4,3.6-8,7.801-8h44.6c31.6,0,52.398,16.799,52.398,44.398v0.4
	c0,30.199-25.199,45.799-55,45.799h-33.998v42.4c0,4.4-3.602,8-8,8c-4.201,0-7.801-3.6-7.801-8V832.739L1038.192,832.739z
	 M1088.592,900.938c23.199,0,38.398-12.4,38.398-30.801v-0.4c0-19.998-15-30.398-37.6-30.398h-35.398v61.6H1088.592
	L1088.592,900.938z"/>
<path fill="#FFFFFF" d="M1345.989,895.137v-0.4c0-39.998,24.398-72.396,61.199-72.396c36.6,0,60.799,31.998,60.799,71.998v0.398
	c0,40-24.4,72.4-61.199,72.4S1345.989,935.137,1345.989,895.137z M1442.586,895.137v-0.4c0-27.6-14.199-50.199-35.799-50.199
	s-35.4,22-35.4,49.801v0.398c0,27.602,14,50.199,35.801,50.199C1428.987,944.936,1442.586,922.538,1442.586,895.137z"/>
<path fill="#FFFFFF" d="M1513.991,847.938l-14.4,4.4c-1.4,0.398-3.199,0.6-4.4,0.6c-5.799,0-10.799-4.801-10.799-10.4
	c0-5.199,3.199-9.199,8.199-10.6l21.199-6.799c4.801-1.4,8.4-2.201,12-2.201h0.4c7,0,12.199,5.4,12.199,12.201v118.396
	c0,6.801-5.398,12.201-12.199,12.201c-6.6,0-12.199-5.4-12.199-12.201V847.938z"/>
<path fill="#FFFFFF" d="M1585.989,952.336c-10.6-10.6-16.998-25.199-16.998-53.398v-0.4c0-42.799,20.398-76.197,59.998-76.197
	c14.4,0,25.801,3.801,35,9.998c3.799,2.4,6.199,5.602,6.199,10.602c0,6.398-5.4,11.398-11.801,11.398
	c-2.199,0-4.398-0.799-6.199-1.799c-7.6-5-14.6-7.801-24-7.801c-20.799,0-32.398,18.801-33.6,44.4c7.4-7.201,17-14,33.6-14
	c27,0,48.799,16,48.799,43.998v0.4c0,27.799-22.6,47.6-51.998,47.6C1607.79,967.137,1595.389,961.737,1585.989,952.336z
	 M1652.389,920.538v-0.4c0-13.998-11.201-24.398-28.6-24.398c-17.4,0-28.4,11.199-28.4,24.6v0.4c0,14.199,11.602,24.998,29,24.998
	C1641.79,945.737,1652.389,934.936,1652.389,920.538z"/>
<path fill="#FFFFFF" d="M1226.991,940.936l42.998-36.6c19.199-16.199,26.199-25.199,26.199-37.799
	c0-13.801-9.799-21.801-22.6-21.801c-11.199,0-19,5.201-27.6,15.6c-1.799,2-4.602,3.801-8.602,3.801
	c-6.197,0-11.197-5-11.197-11.199c0-2.6,1-5.4,2.799-7.6c11.398-14.199,24.398-22.602,46.398-22.602
	c27.4,0,46.199,16.801,46.199,41.801v0.398c0,22-11.6,34-36.4,54.199l-28.799,24h56.799c6,0,10.801,4.801,10.801,10.801
	s-4.801,10.799-10.801,10.799h-79.396c-7.6,0-13.199-4.398-13.199-11.6C1220.59,948.336,1222.79,944.336,1226.991,940.936z"/>
</svg>
