<svg xmlns="http://www.w3.org/2000/svg" viewBox="0 0 300 300"><defs><style>.cls-1{fill:#00ab4e;}.cls-2{fill:#009a46;}.cls-3{fill:#00893e;}.cls-4{fill:#007736;}.cls-5{fill:#009e48;}.cls-6{fill:#008e41;}.cls-7{fill:#007e39;}.cls-8{fill:#006e32;}.cls-9{fill:#fff;}</style></defs><title>nasz_proces_whole</title><g id="Layer_2" data-name="Layer 2"><g id="Layer_1-2" data-name="Layer 1"><path class="cls-1" d="M109,49.94l.36,1,14.31,38.85A65.94,65.94,0,0,1,150,84.25,65.11,65.11,0,0,1,174.48,89l26.91-32.31,9-44A150.24,150.24,0,0,0,75.18,20l33,29.28Z"/><path class="cls-2" d="M215.09,140.68l41.44,7.15,42.58-14.19A150.09,150.09,0,0,0,225.2,20.19l-8.85,43.24-.21,1-.66.79L189,97.06A65.15,65.15,0,0,1,215.09,140.68Z"/><path class="cls-2" d="M84.66,142.71A65.21,65.21,0,0,1,109.39,98.3L94.86,58.83,61.28,29.05A149.79,149.79,0,0,0,0,149.78l41.85-13.95,1-.33,1,.18Z"/><path class="cls-3" d="M257.17,164.5l-1-.18-40.81-7a65.21,65.21,0,0,1-24.73,44.41l14.53,39.47L238.72,271A149.79,149.79,0,0,0,300,150.22l-41.85,13.95Z"/><path class="cls-4" d="M191,250.06l-.36-1-14.31-38.85A65.94,65.94,0,0,1,150,215.75,65.11,65.11,0,0,1,125.52,211L98.61,243.34l-9,44A150.24,150.24,0,0,0,224.82,280l-33-29.28Z"/><path class="cls-3" d="M84.91,159.32l-41.44-7.15L.89,166.36A150.09,150.09,0,0,0,74.8,279.81l8.85-43.24.21-1,.66-.79L111,202.94A65.15,65.15,0,0,1,84.91,159.32Z"/><path class="cls-5" d="M123.64,89.76A65.94,65.94,0,0,1,150,84.25,65.11,65.11,0,0,1,174.48,89l26.91-32.31.3-1.51A108.18,108.18,0,0,0,109,50.06l.31.85Z"/><path class="cls-6" d="M189,97.06a65.15,65.15,0,0,1,26.11,43.62l41.44,7.15,1.44-.48a107.8,107.8,0,0,0-41.92-82.8l-.57.68Z"/><path class="cls-6" d="M84.66,142.71A65.21,65.21,0,0,1,109.39,98.3L94.86,58.83l-1.15-1A108,108,0,0,0,43,135.52l.88.16Z"/><path class="cls-7" d="M257,164.48l-.88-.16-40.81-7a65.21,65.21,0,0,1-24.73,44.41l14.53,39.47,1.15,1A108,108,0,0,0,257,164.48Z"/><path class="cls-8" d="M176.36,210.24A65.94,65.94,0,0,1,150,215.75,65.11,65.11,0,0,1,125.52,211L98.61,243.34l-.3,1.51A108.18,108.18,0,0,0,191,249.94l-.31-.85Z"/><path class="cls-7" d="M111,202.94a65.15,65.15,0,0,1-26.11-43.62l-41.44-7.15-1.44.48A107.8,107.8,0,0,0,84,235.45l.57-.68Z"/><path class="cls-9" d="M131.85,31.81h2.64c1.71,0,3,.6,3,2.42s-1.29,2.55-3,2.55h-1.25v2.88h-1.39Zm2.53,3.85c1.16,0,1.73-.47,1.73-1.43s-.59-1.3-1.73-1.3h-1.14v2.73Z"/><path class="cls-9" d="M141,33.62a2.86,2.86,0,0,1,2.81,3.1,2.82,2.82,0,1,1-5.61,0A2.86,2.86,0,0,1,141,33.62Zm0,5.05c.86,0,1.39-.78,1.39-2s-.53-2-1.39-2-1.38.78-1.38,2S140.12,38.67,141,38.67Z"/><path class="cls-9" d="M145.36,34.86h-.84v-1l.91-.06.17-1.61h1.15v1.61h1.5v1.09h-1.5v2.81c0,.69.27,1,.83,1a1.56,1.56,0,0,0,.61-.14l.24,1a3.67,3.67,0,0,1-1.2.22c-1.37,0-1.87-.86-1.87-2.13Z"/><path class="cls-9" d="M149.49,33.77h1.14l.09,1h.05a2,2,0,0,1,1.67-1.19,1.54,1.54,0,0,1,.67.12l-.24,1.2a1.91,1.91,0,0,0-.61-.09c-.47,0-1,.32-1.39,1.21v3.6h-1.38Z"/><path class="cls-9" d="M153.38,38.91l2.78-4h-2.47V33.77h4.2v.73l-2.77,4H158v1.11h-4.6Z"/><path class="cls-9" d="M161.37,33.62c1.59,0,2.43,1.15,2.43,2.8a2.66,2.66,0,0,1-.06.64H160a1.69,1.69,0,0,0,1.74,1.67,2.46,2.46,0,0,0,1.37-.43l.46.86a3.64,3.64,0,0,1-2,.64,2.84,2.84,0,0,1-2.9-3.08A2.87,2.87,0,0,1,161.37,33.62Zm1.23,2.57c0-.94-.39-1.5-1.2-1.5s-1.29.52-1.41,1.5Z"/><path class="cls-9" d="M165.12,31.19h1.38v2.18l0,1a2.68,2.68,0,0,1,1.7-.73c1.47,0,2.33,1.18,2.33,3,0,2-1.21,3.19-2.52,3.19a2.37,2.37,0,0,1-1.61-.74h0l-.12.6h-1.09Zm2.57,7.47c.78,0,1.38-.7,1.38-2,0-1.17-.38-1.87-1.27-1.87a1.92,1.92,0,0,0-1.3.66v2.75A1.84,1.84,0,0,0,167.69,38.66Z"/><path class="cls-9" d="M175,35.89c0-.62-.27-1.15-1.07-1.15a3.27,3.27,0,0,0-1.65.57l-.5-.92a4.51,4.51,0,0,1,2.41-.77c1.47,0,2.19.9,2.19,2.55v3.49h-1.13l-.1-.65h0a2.9,2.9,0,0,1-1.82.79,1.66,1.66,0,0,1-1.75-1.73C171.5,36.81,172.55,36.15,175,35.89Zm-1.28,2.83a1.83,1.83,0,0,0,1.28-.65V36.75c-1.59.21-2.12.63-2.12,1.21S173.19,38.72,173.68,38.72Z"/><path class="cls-9" d="M139.86,48.17H141l.1,1h.05A2,2,0,0,1,142.81,48a1.59,1.59,0,0,1,.68.12l-.24,1.2a2,2,0,0,0-.62-.09c-.46,0-1,.32-1.39,1.21v3.6h-1.38Z"/><path class="cls-9" d="M144.78,55.36a1.23,1.23,0,0,0,1.18-1l.11-.38-2.32-5.81h1.41l1,2.89c.17.51.34,1.1.52,1.65h.05c.14-.54.3-1.13.44-1.65l.89-2.89h1.33l-2.13,6.15c-.5,1.33-1.11,2.16-2.39,2.16a2.39,2.39,0,0,1-.77-.12l.25-1.08A1.74,1.74,0,0,0,144.78,55.36Z"/><path class="cls-9" d="M150.42,48.17h1.14l.1.79h.05a2.7,2.7,0,0,1,1.93-.94c1.26,0,1.81.85,1.81,2.34v3.7h-1.38V50.54c0-1-.28-1.33-.92-1.33a1.86,1.86,0,0,0-1.35.73v4.12h-1.38Z"/><path class="cls-9" d="M157.14,45.59h1.36v5.29h0l2.18-2.71h1.51l-2,2.4,2.22,3.49h-1.5l-1.51-2.56-.92,1.06v1.5h-1.36Z"/><path class="cls-9" d="M163.16,48.17h1.38v3.51c0,1,.27,1.33.91,1.33s.86-.24,1.3-.81v-4h1.38v5.89H167l-.11-.87h0a2.4,2.4,0,0,1-1.89,1c-1.26,0-1.81-.85-1.81-2.34Z"/><path class="cls-9" d="M29.89,85.81h1.39v7.85H29.89Z"/><path class="cls-9" d="M33.15,87.77h1.14l.09.79h0a2.73,2.73,0,0,1,1.93-.94c1.26,0,1.81.85,1.81,2.34v3.7H36.8V90.14c0-1-.28-1.33-.93-1.33a1.86,1.86,0,0,0-1.34.73v4.12H33.15Z"/><path class="cls-9" d="M42.88,86.28a1.56,1.56,0,0,0-.65-.14c-.48,0-.74.31-.74,1v.64h1.15v1.09H41.49v4.8H40.11v-4.8h-.79v-1l.79-.06v-.61c0-1.23.56-2.12,2-2.12a2.91,2.91,0,0,1,1.08.21Z"/><path class="cls-9" d="M46,87.62a3.11,3.11,0,1,1-2.79,3.1A2.85,2.85,0,0,1,46,87.62Zm0,5c.87,0,1.39-.78,1.39-2s-.52-2-1.39-2-1.38.78-1.38,2S45.1,92.67,46,92.67Z"/><path class="cls-9" d="M50.14,87.77h1.14l.1,1h0a2,2,0,0,1,1.67-1.19,1.54,1.54,0,0,1,.67.12l-.24,1.2a1.91,1.91,0,0,0-.61-.09c-.47,0-1,.32-1.39,1.21v3.6H50.14Z"/><path class="cls-9" d="M54.62,87.77h1.14l.09.8h0a2.49,2.49,0,0,1,1.8-.95,1.61,1.61,0,0,1,1.63,1.06,2.67,2.67,0,0,1,1.89-1.06c1.25,0,1.83.85,1.83,2.34v3.7H61.66V90.14c0-1-.29-1.33-.9-1.33a1.85,1.85,0,0,0-1.24.73v4.12H58.14V90.14c0-1-.29-1.33-.91-1.33a1.84,1.84,0,0,0-1.23.73v4.12H54.62Z"/><path class="cls-9" d="M68,89.89c0-.62-.28-1.15-1.07-1.15a3.31,3.31,0,0,0-1.66.57l-.5-.92a4.57,4.57,0,0,1,2.41-.77c1.48,0,2.2.9,2.2,2.55v3.49H68.2L68.09,93h0a2.85,2.85,0,0,1-1.82.79,1.66,1.66,0,0,1-1.75-1.73C64.48,90.81,65.54,90.15,68,89.89Zm-1.29,2.83A1.87,1.87,0,0,0,68,92.07V90.75c-1.6.21-2.13.63-2.13,1.21S66.17,92.72,66.66,92.72Z"/><path class="cls-9" d="M73.58,87.62a2.39,2.39,0,0,1,1.72.69l-.66.87a1.48,1.48,0,0,0-1-.43c-1,0-1.61.78-1.61,2s.65,2,1.57,2a2,2,0,0,0,1.21-.5l.58.87a2.91,2.91,0,0,1-1.93.76,2.81,2.81,0,0,1-2.85-3.08A2.91,2.91,0,0,1,73.58,87.62Z"/><path class="cls-9" d="M76.56,87.77H78V94c0,1.24-.48,2.17-1.88,2.17a2.79,2.79,0,0,1-1-.16l.27-1a1.59,1.59,0,0,0,.5.1c.53,0,.67-.38.67-1.06ZM76.41,86a.86.86,0,1,1,.85.78A.8.8,0,0,1,76.41,86Z"/><path class="cls-9" d="M82.92,89.89c0-.62-.27-1.15-1.06-1.15a3.31,3.31,0,0,0-1.66.57l-.5-.92a4.51,4.51,0,0,1,2.41-.77c1.47,0,2.19.9,2.19,2.55v3.49H83.17l-.1-.65h0a2.9,2.9,0,0,1-1.82.79,1.66,1.66,0,0,1-1.75-1.73C79.46,90.81,80.51,90.15,82.92,89.89Zm-1.28,2.83a1.83,1.83,0,0,0,1.28-.65V90.75c-1.59.21-2.12.63-2.12,1.21S81.15,92.72,81.64,92.72Z"/><path class="cls-9" d="M36.13,107.31l2.78-4H36.44v-1.09h4.2v.73l-2.77,4h2.86v1.11h-4.6Z"/><path class="cls-9" d="M41.32,102.17h1.39l.71,3.06c.12.56.2,1.11.31,1.69h.05c.11-.58.23-1.14.37-1.69l.77-3.06h1.26l.78,3.06c.14.56.26,1.11.39,1.69h0c.11-.58.21-1.13.31-1.69l.71-3.06h1.3l-1.5,5.89H46.58l-.69-2.75c-.13-.55-.23-1.09-.36-1.72h-.05c-.1.63-.21,1.18-.34,1.73l-.68,2.74H42.88Z"/><path class="cls-9" d="M50.88,102.17H52l.1,1h.05A2,2,0,0,1,53.83,102a1.56,1.56,0,0,1,.68.12l-.24,1.2a2,2,0,0,0-.61-.09c-.47,0-1,.32-1.4,1.21v3.6H50.88Z"/><path class="cls-9" d="M57.65,102a3.11,3.11,0,1,1-2.79,3.1A2.85,2.85,0,0,1,57.65,102Zm0,5c.86,0,1.39-.78,1.39-1.95s-.53-2-1.39-2-1.38.78-1.38,2S56.79,107.07,57.65,107.07Z"/><path class="cls-9" d="M62,103.26h-.84v-1l.91-.06.17-1.61h1.15v1.61h1.5v1.09h-1.5v2.8c0,.7.27,1,.83,1a1.48,1.48,0,0,0,.61-.14l.24,1a3.67,3.67,0,0,1-1.2.22c-1.36,0-1.87-.86-1.87-2.14Z"/><path class="cls-9" d="M66.16,102.17H67.3l.1.79h0a2.73,2.73,0,0,1,1.93-.94c1.26,0,1.82.85,1.82,2.34v3.7H69.81v-3.52c0-1-.28-1.33-.93-1.33a1.86,1.86,0,0,0-1.34.73v4.12H66.16Z"/><path class="cls-9" d="M76.09,104.29c0-.62-.27-1.15-1.06-1.15a3.31,3.31,0,0,0-1.66.57l-.5-.92a4.54,4.54,0,0,1,2.41-.77c1.47,0,2.19.9,2.19,2.55v3.49H76.35l-.11-.65h0a2.87,2.87,0,0,1-1.82.79,1.66,1.66,0,0,1-1.75-1.73C72.63,105.21,73.68,104.55,76.09,104.29Zm-1.28,2.83a1.83,1.83,0,0,0,1.28-.65v-1.32c-1.59.21-2.12.63-2.12,1.21S74.32,107.12,74.81,107.12Z"/><path class="cls-9" d="M222.05,96.82,225.84,91H222.4V89.81h5.17v.84l-3.8,5.83h3.82v1.18h-5.54Z"/><path class="cls-9" d="M228.93,89.19h1.38v2.18l0,1a2.71,2.71,0,0,1,1.71-.73c1.47,0,2.32,1.18,2.32,3,0,2-1.21,3.19-2.52,3.19a2.34,2.34,0,0,1-1.6-.74h0l-.12.6h-1.09Zm2.57,7.47c.78,0,1.37-.7,1.37-2,0-1.17-.38-1.87-1.27-1.87a1.88,1.88,0,0,0-1.29.66v2.75A1.84,1.84,0,0,0,231.5,96.66Z"/><path class="cls-9" d="M235.54,90a.8.8,0,0,1,.85-.8.79.79,0,1,1,0,1.58A.79.79,0,0,1,235.54,90Zm.16,1.81h1.38v5.89H235.7Z"/><path class="cls-9" d="M241.17,91.62c1.59,0,2.43,1.15,2.43,2.8a2.66,2.66,0,0,1-.06.64H239.8a1.69,1.69,0,0,0,1.74,1.67,2.44,2.44,0,0,0,1.37-.43l.46.86a3.64,3.64,0,0,1-2,.64,2.84,2.84,0,0,1-2.9-3.08A2.87,2.87,0,0,1,241.17,91.62Zm1.23,2.57c0-.94-.39-1.5-1.2-1.5s-1.29.52-1.41,1.5Z"/><path class="cls-9" d="M244.93,91.77h1.14l.09,1h.05a2,2,0,0,1,1.67-1.19,1.54,1.54,0,0,1,.67.12l-.24,1.2a2,2,0,0,0-.61-.09c-.47,0-1,.32-1.4,1.21v3.6h-1.37Z"/><path class="cls-9" d="M252.29,93.89c0-.62-.27-1.15-1.07-1.15a3.27,3.27,0,0,0-1.65.57l-.5-.92a4.51,4.51,0,0,1,2.41-.77c1.47,0,2.19.9,2.19,2.55v3.49h-1.13l-.1-.65h0a2.9,2.9,0,0,1-1.82.79,1.66,1.66,0,0,1-1.75-1.73C248.83,94.81,249.88,94.15,252.29,93.89ZM251,96.72a1.83,1.83,0,0,0,1.28-.65V94.75c-1.59.21-2.12.63-2.12,1.21S250.52,96.72,251,96.72Z"/><path class="cls-9" d="M255.35,91.77h1.14l.1.79h.05a2.71,2.71,0,0,1,1.93-.94c1.26,0,1.81.85,1.81,2.34v3.7H259V94.14c0-1-.28-1.33-.92-1.33a1.86,1.86,0,0,0-1.35.73v4.12h-1.38Z"/><path class="cls-9" d="M261.92,90a.85.85,0,1,1,.85.78A.8.8,0,0,1,261.92,90Zm.15,1.81h1.38v5.89h-1.38Z"/><path class="cls-9" d="M267.54,91.62c1.6,0,2.44,1.15,2.44,2.8a2.66,2.66,0,0,1-.06.64h-3.74a1.69,1.69,0,0,0,1.74,1.67,2.41,2.41,0,0,0,1.36-.43l.47.86a3.64,3.64,0,0,1-2,.64,2.84,2.84,0,0,1-2.91-3.08A2.88,2.88,0,0,1,267.54,91.62Zm1.24,2.57c0-.94-.4-1.5-1.2-1.5s-1.29.52-1.41,1.5Z"/><path class="cls-9" d="M220.3,104.36a.85.85,0,1,1,.85.78A.8.8,0,0,1,220.3,104.36Zm.15,1.81h1.38v5.89h-1.38Z"/><path class="cls-9" d="M223.6,106.17h1.14l.09.79h0a2.73,2.73,0,0,1,1.93-.94c1.26,0,1.81.85,1.81,2.34v3.7h-1.38v-3.52c0-1-.27-1.33-.92-1.33a1.85,1.85,0,0,0-1.34.73v4.12H223.6Z"/><path class="cls-9" d="M233.33,104.68a1.59,1.59,0,0,0-.65-.14c-.48,0-.75.31-.75,1v.64h1.16v1.09h-1.16v4.8h-1.37v-4.8h-.8v-1l.8-.06v-.61c0-1.23.56-2.12,1.95-2.12a2.91,2.91,0,0,1,1.08.21Z"/><path class="cls-9" d="M236.41,106a3.11,3.11,0,1,1-2.79,3.1A2.86,2.86,0,0,1,236.41,106Zm0,5c.86,0,1.39-.78,1.39-1.95s-.53-2-1.39-2-1.38.78-1.38,2S235.55,111.07,236.41,111.07Z"/><path class="cls-9" d="M240.59,106.17h1.14l.09,1h.05a2,2,0,0,1,1.67-1.19,1.54,1.54,0,0,1,.67.12l-.24,1.2a1.91,1.91,0,0,0-.61-.09c-.47,0-1,.32-1.39,1.21v3.6h-1.38Z"/><path class="cls-9" d="M245.06,106.17h1.14l.1.8h0a2.47,2.47,0,0,1,1.8-1,1.61,1.61,0,0,1,1.63,1.06,2.67,2.67,0,0,1,1.89-1.06c1.25,0,1.82.85,1.82,2.34v3.7H252.1v-3.52c0-1-.28-1.33-.9-1.33a1.82,1.82,0,0,0-1.23.73v4.12h-1.38v-3.52c0-1-.29-1.33-.91-1.33a1.87,1.87,0,0,0-1.24.73v4.12h-1.38Z"/><path class="cls-9" d="M258.39,108.29c0-.62-.27-1.15-1.06-1.15a3.31,3.31,0,0,0-1.66.57l-.5-.92a4.51,4.51,0,0,1,2.41-.77c1.47,0,2.19.9,2.19,2.55v3.49h-1.13l-.1-.65h0a2.9,2.9,0,0,1-1.82.79,1.66,1.66,0,0,1-1.75-1.73C254.93,109.21,256,108.55,258.39,108.29Zm-1.28,2.83a1.83,1.83,0,0,0,1.28-.65v-1.32c-1.59.21-2.12.63-2.12,1.21S256.62,111.12,257.11,111.12Z"/><path class="cls-9" d="M264,106a2.41,2.41,0,0,1,1.73.69l-.66.87a1.5,1.5,0,0,0-1-.43c-.94,0-1.6.78-1.6,2s.64,1.95,1.57,1.95a2,2,0,0,0,1.21-.5l.57.87a2.91,2.91,0,0,1-1.93.76,2.8,2.8,0,0,1-2.84-3.08A2.91,2.91,0,0,1,264,106Z"/><path class="cls-9" d="M267,106.17h1.39v6.19c0,1.24-.48,2.17-1.87,2.17a2.79,2.79,0,0,1-1-.16l.26-1a1.71,1.71,0,0,0,.51.1c.53,0,.67-.38.67-1.06Zm-.16-1.81a.86.86,0,0,1,1.72,0,.86.86,0,0,1-1.72,0Z"/><path class="cls-9" d="M270,104.36a.85.85,0,1,1,.85.78A.8.8,0,0,1,270,104.36Zm.16,1.81h1.37v5.89h-1.37Z"/><path class="cls-9" d="M18.88,191.81H20.3l.69,4c.13.84.26,1.68.38,2.51h.05c.17-.83.33-1.68.51-2.51l1-4H24.1l1,4c.18.82.35,1.67.53,2.51h.05c.12-.84.25-1.68.37-2.51l.69-4H28l-1.5,7.85H24.8l-1-4.13c-.13-.61-.25-1.21-.35-1.81h-.05c-.1.6-.22,1.2-.36,1.81l-.94,4.13h-1.7Z"/><path class="cls-9" d="M29.31,201a1.23,1.23,0,0,0,1.18-1l.11-.38-2.32-5.81h1.41l1,2.89c.16.51.33,1.1.51,1.65h.05c.14-.54.3-1.12.44-1.65l.89-2.89h1.33l-2.13,6.15c-.49,1.33-1.11,2.16-2.39,2.16a2.39,2.39,0,0,1-.77-.12l.25-1.08A1.36,1.36,0,0,0,29.31,201Z"/><path class="cls-9" d="M36.21,200.14V202H34.83v-8.21H36l.1.62h0a2.87,2.87,0,0,1,1.77-.77c1.47,0,2.32,1.18,2.32,3,0,2-1.21,3.18-2.52,3.18a2.36,2.36,0,0,1-1.51-.65Zm1.19-1.48c.78,0,1.38-.7,1.38-2,0-1.17-.38-1.87-1.27-1.87a1.92,1.92,0,0,0-1.3.66v2.75A1.88,1.88,0,0,0,37.4,198.66Z"/><path class="cls-9" d="M41.42,193.77H42.8v3.51c0,1,.28,1.33.91,1.33A1.58,1.58,0,0,0,45,197.8v-4H46.4v5.89H45.27l-.1-.87h0a2.41,2.41,0,0,1-1.9,1c-1.26,0-1.81-.85-1.81-2.34Z"/><path class="cls-9" d="M48.09,198.1a2.69,2.69,0,0,0,1.64.66c.63,0,.93-.3.93-.71s-.63-.71-1.26-1-1.65-.73-1.65-1.71.82-1.77,2.14-1.77a3.2,3.2,0,0,1,2,.71l-.64.84a2.15,2.15,0,0,0-1.29-.5c-.59,0-.87.27-.87.64s.59.65,1.23.88c.8.3,1.69.68,1.69,1.79s-.8,1.82-2.29,1.82a3.69,3.69,0,0,1-2.23-.82Z"/><path class="cls-9" d="M52.62,198.91l2.78-4H52.93v-1.09h4.2v.73l-2.77,4.05h2.86v1.11h-4.6Z"/><path class="cls-9" d="M60.73,193.62a2.43,2.43,0,0,1,1.73.69l-.66.87a1.52,1.52,0,0,0-1-.43c-.95,0-1.61.78-1.61,2s.65,1.95,1.57,1.95a2,2,0,0,0,1.22-.5l.57.87a2.91,2.91,0,0,1-1.93.76,2.8,2.8,0,0,1-2.84-3.08A2.91,2.91,0,0,1,60.73,193.62Z"/><path class="cls-9" d="M63.12,198.91l2.78-4H63.43v-1.09h4.2v.73l-2.77,4.05h2.86v1.11h-4.6Z"/><path class="cls-9" d="M71,193.62c1.59,0,2.43,1.15,2.43,2.8a2.81,2.81,0,0,1-.06.65H69.62a1.69,1.69,0,0,0,1.74,1.66,2.42,2.42,0,0,0,1.37-.43l.47.86a3.67,3.67,0,0,1-2,.64,2.84,2.84,0,0,1-2.9-3.08A2.87,2.87,0,0,1,71,193.62Zm1.24,2.57c0-.94-.4-1.5-1.2-1.5s-1.3.52-1.42,1.5Z"/><path class="cls-9" d="M74.63,193.77h1.14l.09.79h0a2.73,2.73,0,0,1,1.93-.94c1.26,0,1.81.85,1.81,2.34v3.7H78.27v-3.52c0-1-.27-1.33-.92-1.33a1.85,1.85,0,0,0-1.34.73v4.12H74.63Z"/><path class="cls-9" d="M81.07,192a.85.85,0,1,1,.85.78A.79.79,0,0,1,81.07,192Zm.16,1.81h1.38v5.89H81.23Z"/><path class="cls-9" d="M86.58,193.62c1.59,0,2.43,1.15,2.43,2.8a2.81,2.81,0,0,1-.06.65H85.21A1.69,1.69,0,0,0,87,198.73a2.46,2.46,0,0,0,1.37-.43l.46.86a3.64,3.64,0,0,1-2,.64,2.84,2.84,0,0,1-2.9-3.08A2.87,2.87,0,0,1,86.58,193.62Zm1.23,2.57c0-.94-.39-1.5-1.2-1.5s-1.29.52-1.41,1.5Z"/><path class="cls-9" d="M32.81,208.17H34l.1.79h.05A2.7,2.7,0,0,1,36,208c1.26,0,1.81.86,1.81,2.34v3.7H36.46v-3.52c0-1-.28-1.33-.92-1.33a1.86,1.86,0,0,0-1.35.73v4.12H32.81Z"/><path class="cls-9" d="M42.63,210.29c0-.62-.28-1.15-1.07-1.15a3.24,3.24,0,0,0-1.65.57l-.51-.92a4.57,4.57,0,0,1,2.41-.77c1.48,0,2.2.9,2.2,2.55v3.49H42.88l-.11-.65h0a2.9,2.9,0,0,1-1.83.79,1.66,1.66,0,0,1-1.75-1.73C39.16,211.21,40.22,210.55,42.63,210.29Zm-1.29,2.83a1.85,1.85,0,0,0,1.29-.65v-1.32c-1.6.21-2.13.63-2.13,1.22S40.85,213.12,41.34,213.12Z"/><path class="cls-9" d="M47.91,208.17h1.14l.09,1h0A2,2,0,0,1,50.86,208a1.54,1.54,0,0,1,.67.12l-.24,1.2a1.91,1.91,0,0,0-.61-.09c-.47,0-1,.32-1.39,1.21v3.6H47.91Z"/><path class="cls-9" d="M52.71,215.36a1.23,1.23,0,0,0,1.17-1L54,214l-2.31-5.81h1.4l1,2.89c.17.51.34,1.1.52,1.65h0c.15-.54.3-1.13.45-1.65l.89-2.89h1.33l-2.14,6.15c-.49,1.33-1.1,2.16-2.38,2.16a2.3,2.3,0,0,1-.77-.12l.25-1.08A1.36,1.36,0,0,0,52.71,215.36Z"/><path class="cls-9" d="M58.23,208.17h1.14l.09.79h0a2.73,2.73,0,0,1,1.93-.94c1.26,0,1.81.86,1.81,2.34v3.7H61.87v-3.52c0-1-.27-1.33-.92-1.33a1.86,1.86,0,0,0-1.34.73v4.12H58.23Z"/><path class="cls-9" d="M67.16,208c1.59,0,2.43,1.15,2.43,2.8a2.81,2.81,0,0,1-.06.65H65.79a1.69,1.69,0,0,0,1.74,1.66,2.46,2.46,0,0,0,1.37-.43l.46.86a3.64,3.64,0,0,1-2,.64,2.84,2.84,0,0,1-2.9-3.08A2.87,2.87,0,0,1,67.16,208Zm1.23,2.57c0-.94-.39-1.5-1.2-1.5s-1.29.52-1.41,1.5Z"/><path class="cls-9" d="M70.79,205.59h1.36v5.29h0l2.19-2.71h1.51l-2,2.4,2.22,3.49h-1.5l-1.51-2.56-.92,1.06v1.5H70.79Z"/><path class="cls-9" d="M227.91,201.53h-2.64l-.61,2.13h-1.42l2.56-7.85h1.63l2.55,7.85h-1.46Zm-.31-1.09-.28-1c-.25-.83-.48-1.73-.71-2.59h0c-.22.88-.45,1.76-.7,2.59l-.28,1Z"/><path class="cls-9" d="M230.84,197.77H232l.1.79h0a2.73,2.73,0,0,1,1.93-.94c1.26,0,1.82.85,1.82,2.34v3.7h-1.38v-3.52c0-1-.28-1.33-.93-1.33a1.86,1.86,0,0,0-1.34.73v4.12h-1.38Z"/><path class="cls-9" d="M240.77,199.89c0-.62-.27-1.15-1.06-1.15a3.31,3.31,0,0,0-1.66.57l-.5-.92a4.54,4.54,0,0,1,2.41-.77c1.47,0,2.19.9,2.19,2.55v3.49H241l-.11-.65h0a2.9,2.9,0,0,1-1.82.79,1.66,1.66,0,0,1-1.75-1.73C237.31,200.81,238.36,200.15,240.77,199.89Zm-1.28,2.83a1.83,1.83,0,0,0,1.28-.65v-1.32c-1.59.21-2.12.63-2.12,1.21S239,202.72,239.49,202.72Z"/><path class="cls-9" d="M243.83,195.19h1.38v7c0,.33.16.45.3.45l.22,0,.18,1a1.93,1.93,0,0,1-.73.12c-1,0-1.35-.64-1.35-1.66Z"/><path class="cls-9" d="M246.93,196a.85.85,0,1,1,.85.78A.79.79,0,0,1,246.93,196Zm.16,1.81h1.38v5.89h-1.38Z"/><path class="cls-9" d="M249.76,202.91l2.79-4h-2.47v-1.09h4.19v.73l-2.77,4.05h2.87v1.11h-4.61Z"/><path class="cls-9" d="M258.54,199.89c0-.62-.27-1.15-1.06-1.15a3.31,3.31,0,0,0-1.66.57l-.5-.92a4.54,4.54,0,0,1,2.41-.77c1.48,0,2.19.9,2.19,2.55v3.49H258.8l-.11-.65h0a2.85,2.85,0,0,1-1.82.79,1.66,1.66,0,0,1-1.75-1.73C255.08,200.81,256.13,200.15,258.54,199.89Zm-1.28,2.83a1.83,1.83,0,0,0,1.28-.65v-1.32c-1.59.21-2.12.63-2.12,1.21S256.77,202.72,257.26,202.72Z"/><path class="cls-9" d="M226.07,212a2.18,2.18,0,0,1,1.55.65l-.05-.95v-2.13H229v8.47h-1.14l-.09-.64h-.05a2.46,2.46,0,0,1-1.67.78c-1.47,0-2.42-1.14-2.42-3.08S224.79,212,226.07,212Zm.27,5a1.57,1.57,0,0,0,1.23-.66v-2.75a1.73,1.73,0,0,0-1.2-.49c-.75,0-1.36.71-1.36,2S225.49,217.06,226.34,217.06Z"/><path class="cls-9" d="M233.92,214.29c0-.62-.27-1.15-1.07-1.15a3.27,3.27,0,0,0-1.65.57l-.5-.92a4.51,4.51,0,0,1,2.41-.77c1.47,0,2.19.9,2.19,2.55v3.49h-1.13l-.1-.65h0a2.9,2.9,0,0,1-1.82.79,1.66,1.66,0,0,1-1.75-1.73C230.46,215.21,231.51,214.55,233.92,214.29Zm-1.28,2.83a1.83,1.83,0,0,0,1.28-.65v-1.32c-1.59.21-2.12.63-2.12,1.22S232.15,217.12,232.64,217.12Z"/><path class="cls-9" d="M237,212.17h1.14l.1.79h.05a2.7,2.7,0,0,1,1.93-.94c1.26,0,1.81.86,1.81,2.34v3.7h-1.38v-3.52c0-1-.28-1.33-.92-1.33a1.86,1.86,0,0,0-1.35.73v4.12H237Z"/><path class="cls-9" d="M244,219.36a1.23,1.23,0,0,0,1.18-1l.11-.38L243,212.17h1.41l1,2.89c.17.51.34,1.1.52,1.65H246c.14-.54.3-1.13.44-1.65l.89-2.89h1.33l-2.13,6.15c-.5,1.33-1.11,2.16-2.39,2.16a2.39,2.39,0,0,1-.77-.12l.25-1.08A1.36,1.36,0,0,0,244,219.36Z"/><path class="cls-9" d="M252.14,212a2.43,2.43,0,0,1,1.73.69l-.66.87a1.52,1.52,0,0,0-1-.43c-1,0-1.61.78-1.61,2s.65,1.95,1.57,1.95a2,2,0,0,0,1.22-.5l.57.87a2.91,2.91,0,0,1-1.93.76,2.8,2.8,0,0,1-2.84-3.08A2.91,2.91,0,0,1,252.14,212Z"/><path class="cls-9" d="M255.12,209.59h1.38v2.18l-.05,1.14a2.69,2.69,0,0,1,1.88-.89c1.26,0,1.81.86,1.81,2.34v3.7h-1.38v-3.52c0-1-.27-1.33-.92-1.33a1.85,1.85,0,0,0-1.34.73v4.12h-1.38Z"/><path class="cls-9" d="M118.3,251.7a3.11,3.11,0,0,0,2,.89c.88,0,1.36-.4,1.36-1s-.5-.85-1.21-1.15l-1.08-.47a2.26,2.26,0,0,1-1.58-2.08,2.38,2.38,0,0,1,2.64-2.21,3.46,3.46,0,0,1,2.41,1l-.71.89a2.54,2.54,0,0,0-1.7-.67c-.74,0-1.24.35-1.24.92s.6.84,1.25,1.11l1.07.44a2.2,2.2,0,0,1,1.58,2.12c0,1.27-1,2.33-2.82,2.33a4.09,4.09,0,0,1-2.83-1.15Z"/><path class="cls-9" d="M124.65,248.86h-.84v-1l.91-.06.17-1.61H126v1.61h1.5v1.09H126v2.81c0,.69.26,1,.83,1a1.56,1.56,0,0,0,.61-.14l.24,1a3.78,3.78,0,0,1-1.2.22c-1.37,0-1.87-.86-1.87-2.13Z"/><path class="cls-9" d="M128.19,247.77h1.39l.71,3.06c.12.56.2,1.11.31,1.69h.05c.1-.58.22-1.14.37-1.69l.76-3.06H133l.78,3.06c.15.56.27,1.11.4,1.69h.05c.11-.58.2-1.13.31-1.69l.71-3.06h1.29l-1.5,5.89h-1.64l-.68-2.75c-.14-.55-.23-1.09-.36-1.72h-.05c-.11.63-.22,1.18-.35,1.73l-.67,2.74h-1.58Z"/><path class="cls-9" d="M140.09,247.62a3.11,3.11,0,1,1-2.8,3.1A2.86,2.86,0,0,1,140.09,247.62Zm0,5c.86,0,1.39-.78,1.39-1.95s-.53-2-1.39-2-1.38.78-1.38,2S139.23,252.67,140.09,252.67Z"/><path class="cls-9" d="M144.27,247.77h1.14l.09,1h.05a2,2,0,0,1,1.67-1.19,1.54,1.54,0,0,1,.67.12l-.24,1.2a2,2,0,0,0-.61-.09c-.47,0-1,.32-1.39,1.21v3.6h-1.38Z"/><path class="cls-9" d="M148.15,252.91l2.79-4h-2.47v-1.09h4.19v.73l-2.77,4.05h2.87v1.11h-4.61Z"/><path class="cls-9" d="M156.14,247.62c1.6,0,2.44,1.15,2.44,2.8a3.51,3.51,0,0,1-.06.65h-3.74a1.69,1.69,0,0,0,1.74,1.66,2.41,2.41,0,0,0,1.36-.43l.47.86a3.64,3.64,0,0,1-2,.64,3.11,3.11,0,0,1-.2-6.18Zm1.24,2.57c0-.94-.4-1.5-1.2-1.5s-1.3.52-1.42,1.5Z"/><path class="cls-9" d="M159.9,247.77H161l.1.79h0a2.74,2.74,0,0,1,1.94-.94c1.25,0,1.81.85,1.81,2.34v3.7h-1.38v-3.52c0-1-.28-1.33-.93-1.33a1.86,1.86,0,0,0-1.34.73v4.12H159.9Z"/><path class="cls-9" d="M166.47,246a.85.85,0,1,1,.85.78A.79.79,0,0,1,166.47,246Zm.15,1.81H168v5.89h-1.38Z"/><path class="cls-9" d="M172.09,247.62c1.6,0,2.44,1.15,2.44,2.8a3.51,3.51,0,0,1-.06.65h-3.75a1.69,1.69,0,0,0,1.74,1.66,2.42,2.42,0,0,0,1.37-.43l.47.86a3.64,3.64,0,0,1-2,.64,2.84,2.84,0,0,1-2.9-3.08A2.87,2.87,0,0,1,172.09,247.62Zm1.24,2.57c0-.94-.4-1.5-1.2-1.5s-1.3.52-1.42,1.5Z"/><path class="cls-9" d="M124.17,268.54v1.84h-1.38v-8.21h1.14l.09.62h0a2.87,2.87,0,0,1,1.77-.77c1.47,0,2.32,1.18,2.32,3,0,2-1.21,3.18-2.52,3.18a2.36,2.36,0,0,1-1.51-.65Zm1.18-1.48c.78,0,1.38-.69,1.38-2,0-1.17-.38-1.87-1.27-1.87a1.88,1.88,0,0,0-1.29.66v2.75A1.83,1.83,0,0,0,125.35,267.06Z"/><path class="cls-9" d="M129.55,262.17h1.14l.1,1h.05A2,2,0,0,1,132.5,262a1.59,1.59,0,0,1,.68.12l-.24,1.2a2,2,0,0,0-.62-.09c-.46,0-1,.32-1.39,1.21v3.6h-1.38Z"/><path class="cls-9" d="M136.32,262a3.11,3.11,0,1,1-2.79,3.1A2.85,2.85,0,0,1,136.32,262Zm0,5.05c.86,0,1.39-.78,1.39-1.95s-.53-2-1.39-2-1.38.78-1.38,2S135.46,267.07,136.32,267.07Z"/><path class="cls-9" d="M142.63,262a2.22,2.22,0,0,1,1.55.65l-.05-.95v-2.13h1.38v8.47h-1.14l-.09-.64h-.05a2.46,2.46,0,0,1-1.67.78c-1.47,0-2.42-1.14-2.42-3.08S141.35,262,142.63,262Zm.27,5a1.57,1.57,0,0,0,1.23-.66v-2.75a1.75,1.75,0,0,0-1.2-.49c-.75,0-1.36.71-1.36,1.95S142.05,267.06,142.9,267.06Z"/><path class="cls-9" d="M147.21,262.17h1.38v3.51c0,1,.27,1.33.91,1.33s.86-.24,1.3-.81v-4h1.38v5.89h-1.12l-.11-.87h0a2.4,2.4,0,0,1-1.89,1c-1.26,0-1.81-.85-1.81-2.34Z"/><path class="cls-9" d="M153.94,259.59h1.35v5.29h0l2.18-2.71H159l-2,2.4,2.22,3.49h-1.5l-1.51-2.56-.93,1.06v1.5h-1.35Z"/><path class="cls-9" d="M160.21,263.26h-.84v-1l.92-.06.16-1.61h1.15v1.61h1.5v1.09h-1.5v2.81c0,.69.27,1,.83,1A1.48,1.48,0,0,0,163,267l.24,1a3.67,3.67,0,0,1-1.2.22c-1.36,0-1.87-.86-1.87-2.13Z"/><path class="cls-9" d="M164.23,262.17h1.38v3.51c0,1,.28,1.33.91,1.33a1.58,1.58,0,0,0,1.31-.81v-4h1.38v5.89h-1.13l-.1-.87h0a2.41,2.41,0,0,1-1.9,1c-1.25,0-1.81-.85-1.81-2.34Z"/></g></g></svg>